<svg width="28" height="28" viewBox="0 0 28 28" fill="none" xmlns="http://www.w3.org/2000/svg">
<path d="M14 17.5C15.933 17.5 17.5 15.933 17.5 14C17.5 12.067 15.933 10.5 14 10.5C12.067 10.5 10.5 12.067 10.5 14C10.5 15.933 12.067 17.5 14 17.5Z" fill="white"/>
<path d="M26.8428 13.0484C25.3958 10.8106 23.5184 8.90969 21.414 7.5507C19.0859 6.0457 16.5156 5.25 13.9814 5.25C11.6561 5.25 9.3696 5.91445 7.18538 7.22477C4.95796 8.56078 2.93999 10.5126 1.18726 13.0255C0.98939 13.3095 0.880416 13.6459 0.874184 13.9919C0.867952 14.338 0.964743 14.6781 1.15226 14.9691C2.59655 17.2293 4.45538 19.133 6.52695 20.4734C8.85937 21.9844 11.3695 22.75 13.9814 22.75C16.5359 22.75 19.1116 21.9609 21.4298 20.4684C23.5331 19.1138 25.4067 17.2058 26.8483 14.9494C27.0293 14.6652 27.125 14.3351 27.1241 13.9981C27.1231 13.6612 27.0255 13.3316 26.8428 13.0484ZM14 19.25C12.9616 19.25 11.9466 18.9421 11.0832 18.3652C10.2199 17.7883 9.54698 16.9684 9.14962 16.0091C8.75226 15.0498 8.6483 13.9942 8.85087 12.9758C9.05344 11.9574 9.55346 11.0219 10.2877 10.2877C11.0219 9.55346 11.9574 9.05345 12.9758 8.85088C13.9942 8.64831 15.0498 8.75227 16.0091 9.14963C16.9684 9.54699 17.7883 10.2199 18.3652 11.0833C18.9421 11.9466 19.25 12.9616 19.25 14C19.2484 15.3919 18.6948 16.7263 17.7105 17.7106C16.7263 18.6948 15.3919 19.2484 14 19.25Z" fill="white"/>
</svg>
